<mxfile host="app.diagrams.net" modified="2021-05-19T03:09:23.665Z" agent="5.0 (Macintosh; Intel Mac OS X 10_15_5) AppleWebKit/537.36 (KHTML, like Gecko) Chrome/90.0.4430.212 Safari/537.36" etag="GnOyHBWhZnjvPLbRIvLB" version="14.6.6" type="github" pages="3">
  <diagram id="jBVd53Vgv6jWxnRmF5C7" name="第 1 页">
    <mxGraphModel dx="1343" dy="989" grid="1" gridSize="10" guides="1" tooltips="1" connect="1" arrows="1" fold="1" page="1" pageScale="1" pageWidth="1100" pageHeight="850" math="0" shadow="0">
      <root>
        <mxCell id="0" />
        <mxCell id="1" parent="0" />
        <mxCell id="0_3TDVU3Uc3xNeGm1vze-1" value="&lt;font style=&quot;font-size: 18px&quot;&gt;Mobile Architecture &amp;amp; Refactor&lt;/font&gt;" style="text;html=1;strokeColor=none;fillColor=none;align=center;verticalAlign=middle;whiteSpace=wrap;rounded=0;" vertex="1" parent="1">
          <mxGeometry x="415" y="300" width="270" height="60" as="geometry" />
        </mxCell>
      </root>
    </mxGraphModel>
  </diagram>
  <diagram id="OTXeEmKX1024LoEqOAhG" name="第 2 页">
    <mxGraphModel dx="1567" dy="1153" grid="1" gridSize="10" guides="1" tooltips="1" connect="1" arrows="1" fold="1" page="1" pageScale="1" pageWidth="1100" pageHeight="850" math="0" shadow="0">
      <root>
        <mxCell id="xOI5eCs5TdMQ0KwlOFbu-0" />
        <mxCell id="xOI5eCs5TdMQ0KwlOFbu-1" parent="xOI5eCs5TdMQ0KwlOFbu-0" />
        <mxCell id="v9i4CJEYtMJxMLbdbWfA-2" value="&lt;font style=&quot;font-size: 18px&quot;&gt;从不同的角度和切面来划分系统，使系统更有利于维护和开发&lt;/font&gt;" style="text;html=1;strokeColor=none;fillColor=none;align=center;verticalAlign=middle;whiteSpace=wrap;rounded=0;" vertex="1" parent="xOI5eCs5TdMQ0KwlOFbu-1">
          <mxGeometry x="40" y="40" width="500" height="60" as="geometry" />
        </mxCell>
        <mxCell id="v9i4CJEYtMJxMLbdbWfA-3" value="方法" style="rounded=1;whiteSpace=wrap;html=1;" vertex="1" parent="xOI5eCs5TdMQ0KwlOFbu-1">
          <mxGeometry x="470" y="120" width="120" height="60" as="geometry" />
        </mxCell>
        <mxCell id="v9i4CJEYtMJxMLbdbWfA-4" value="垂直" style="rounded=1;whiteSpace=wrap;html=1;" vertex="1" parent="xOI5eCs5TdMQ0KwlOFbu-1">
          <mxGeometry x="220" y="240" width="120" height="60" as="geometry" />
        </mxCell>
        <mxCell id="v9i4CJEYtMJxMLbdbWfA-5" value="水平" style="rounded=1;whiteSpace=wrap;html=1;" vertex="1" parent="xOI5eCs5TdMQ0KwlOFbu-1">
          <mxGeometry x="700" y="240" width="120" height="60" as="geometry" />
        </mxCell>
        <mxCell id="v9i4CJEYtMJxMLbdbWfA-6" value="分层次" style="rounded=1;whiteSpace=wrap;html=1;" vertex="1" parent="xOI5eCs5TdMQ0KwlOFbu-1">
          <mxGeometry x="210" y="410" width="120" height="60" as="geometry" />
        </mxCell>
        <mxCell id="v9i4CJEYtMJxMLbdbWfA-7" value="模块化" style="rounded=1;whiteSpace=wrap;html=1;" vertex="1" parent="xOI5eCs5TdMQ0KwlOFbu-1">
          <mxGeometry x="560" y="410" width="120" height="60" as="geometry" />
        </mxCell>
        <mxCell id="v9i4CJEYtMJxMLbdbWfA-8" value="组件化" style="rounded=1;whiteSpace=wrap;html=1;" vertex="1" parent="xOI5eCs5TdMQ0KwlOFbu-1">
          <mxGeometry x="810" y="410" width="120" height="60" as="geometry" />
        </mxCell>
      </root>
    </mxGraphModel>
  </diagram>
  <diagram id="QLlDlk2MrdqqNozNVidc" name="第 3 页">
    <mxGraphModel dx="1567" dy="1153" grid="1" gridSize="10" guides="1" tooltips="1" connect="1" arrows="1" fold="1" page="1" pageScale="1" pageWidth="1100" pageHeight="850" math="0" shadow="0">
      <root>
        <mxCell id="OXPY4A9N_SDFGfVpkb2C-0" />
        <mxCell id="OXPY4A9N_SDFGfVpkb2C-1" parent="OXPY4A9N_SDFGfVpkb2C-0" />
      </root>
    </mxGraphModel>
  </diagram>
</mxfile>
